<?xml version="1.0" encoding="UTF-8" standalone="no"?>
<svg
   xmlns:dc="http://purl.org/dc/elements/1.1/"
   xmlns:cc="http://creativecommons.org/ns#"
   xmlns:rdf="http://www.w3.org/1999/02/22-rdf-syntax-ns#"
   xmlns:svg="http://www.w3.org/2000/svg"
   xmlns="http://www.w3.org/2000/svg"
   viewBox="0 0 4000 2666.6667"
   height="2666.6667"
   width="4000"
   xml:space="preserve"
   id="svg2"
   version="1.1"><metadata
     id="metadata8"><rdf:RDF><cc:Work
         rdf:about=""><dc:format>image/svg+xml</dc:format><dc:type
           rdf:resource="http://purl.org/dc/dcmitype/StillImage" /></cc:Work></rdf:RDF></metadata><defs
     id="defs6" /><g
     transform="matrix(1.3333333,0,0,-1.3333333,0,2666.6667)"
     id="g10"><g
       transform="scale(0.1)"
       id="g12"><g
         transform="scale(1.84049)"
         id="g14"><path
           id="path16"
           style="fill:#ffffff;fill-opacity:1;fill-rule:nonzero;stroke:none"
           d="M 16300,0 H 0 V 10866.7 H 16300 V 0" /></g><g
         transform="scale(1.76378)"
         id="g18"><path
           id="path20"
           style="fill:#ebf3fa;fill-opacity:1;fill-rule:nonzero;stroke:none"
           d="m 2174.02,1627.53 c 0,0 -1756.249,1885.66 -297.01,3927.13 C 3171.75,7366 4681.28,7242.18 5788.82,6507.12 6260.48,6194.06 7620.46,6468.54 8778.03,8311.65 10356.5,10825.2 15828.3,9300.7 14830.7,5433.62 14347.8,3562.24 16300,3494.2 15305.3,1623.56 l -13131.28,3.97" /></g><path
         id="path22"
         style="fill:#a8d29f;fill-opacity:1;fill-rule:nonzero;stroke:none"
         d="m 9783.2,9300.3 c 0,0 -1532.42,2181.3 -2131.3,1898.5 C 7053.03,10916 9783.2,9300.3 9783.2,9300.3" /><path
         id="path24"
         style="fill:#a8d29f;fill-opacity:1;fill-rule:nonzero;stroke:none"
         d="m 9685.75,9886.4 c 0,0 -234.07,1640.1 -603.08,1575.8 -369.01,-64.4 603.08,-1575.8 603.08,-1575.8" /><path
         id="path26"
         style="fill:#82b378;fill-opacity:1;fill-rule:nonzero;stroke:none"
         d="m 8390.17,4774.4 c 0,0 147.3,729.8 -424.74,821.5 0,0 -387.98,13.6 -616.42,-132.7 0,0 648.79,-374.6 571.63,-491 -77.15,-116.4 -692.84,469.5 -692.84,469.5 0,0 -695.5,-304.6 -850.73,-525.3 0,0 821.87,-146.4 718.44,-240.2 -103.44,-93.9 -965.74,18.8 -965.74,18.8 0,0 -555.67,-447.6 -313.65,-803.9 242.01,-356.3 518.22,-353.7 605.65,-291.8 87.43,61.9 515.4,573.5 569.82,503.9 54.42,-69.6 -133.91,-501.5 -356.7,-641.3 0,0 699.65,-235.6 910.39,63 210.74,298.5 113.27,530.6 246.86,712.8 133.58,182.1 286.8,267.4 259.43,142.5 -27.37,-124.9 -306.6,-387.5 -307.81,-626.2 -1.21,-238.7 -24.87,-412.5 247.79,-201.4 272.65,211.1 634.84,699.3 516.73,960.5 -118.11,261.3 -118.11,261.3 -118.11,261.3" /><path
         id="path28"
         style="fill:#82b378;fill-opacity:1;fill-rule:nonzero;stroke:none"
         d="m 6123.48,4049.6 c 0,0 1631.9,996 2266.69,724.8 0,0 217.75,-198.4 592.51,-280.5 l 98.56,-84.7 c 0,0 -459.25,143.3 -572.96,103.9 0,0 -168.41,681.3 -2384.8,-463.5" /><path
         id="path30"
         style="fill:#82b378;fill-opacity:1;fill-rule:nonzero;stroke:none"
         d="m 8982.68,4493.9 c 0,0 505.89,-64.8 795.04,-523.9 L 9716,3927.9 c 0,0 -387.6,425.2 -701.12,501 -313.51,75.9 -32.2,65 -32.2,65" /><path
         id="path32"
         style="fill:#a8d29f;fill-opacity:1;fill-rule:nonzero;stroke:none"
         d="m 8889.69,6903.9 c 0,0 1185.01,663.6 632,1564.2 0,0 -442.4,553 -916.4,695.2 0,0 252.8,-1343 0,-1374.6 -252.8,-31.6 -173.81,1516.8 -173.81,1516.8 0,0 -1248.2,600.4 -1738,553 0,0 774.21,-1311.4 521.4,-1279.8 -252.8,31.6 -1121.8,1358.8 -1121.8,1358.8 0,0 -1279.81,237.1 -1485.21,-521.4 -205.4,-758.4 126.4,-1137.6 316,-1185 189.6,-47.4 1406.21,-31.6 1374.61,-189.6 -31.6,-158 -853.21,-410.8 -1311.41,-268.6 0,0 505.61,-1248.2 1169.21,-1185 663.6,63.2 869,474 1279.8,505.6 410.8,31.6 711,-79 505.6,-189.6 -205.4,-110.6 -900.6,-36.2 -1232.4,-318.3 -331.8,-282.1 -600.4,-455.9 15.8,-582.3 616.2,-126.4 1722.21,-47.4 1943.41,426.6 221.2,474 221.2,474 221.2,474" /><path
         id="path34"
         style="fill:#82b378;fill-opacity:1;fill-rule:nonzero;stroke:none"
         d="m 5192.47,9179.1 c 0,0 3318.02,-1074.4 3697.22,-2275.2 0,0 -15.8,-537.2 316,-1153.4 v -237 c 0,0 -347.6,805.8 -537.2,916.4 0,0 742.6,1042.8 -3476.02,2749.2" /><path
         id="path36"
         style="fill:#82b378;fill-opacity:1;fill-rule:nonzero;stroke:none"
         d="m 9205.69,5750.5 c 0,0 511.69,-777 219.98,-1722.9 l -131.65,35.4 c 0,0 127.79,1041.8 -139.92,1565.8 -267.71,524 51.59,121.7 51.59,121.7" /><path
         id="path38"
         style="fill:#ed7d2b;fill-opacity:1;fill-rule:nonzero;stroke:none"
         d="M 10094.1,12456 8321.07,3289.9 c -36.06,-186.5 106.77,-359.6 296.65,-359.6 h 935.08 l 541.3,9525.7" /><g
         transform="scale(1.53803)"
         id="g40"><path
           id="path42"
           style="fill:#c7dcfb;fill-opacity:1;fill-rule:nonzero;stroke:none"
           d="m 14225.7,6392.66 c 0,0 -518.5,330.8 -245.1,723.63 0,0 214.4,238.53 432.4,290.52 0,0 -149.2,-600.63 -35.7,-621.48 113.5,-20.84 117.9,681.26 117.9,681.26 0,0 580,239.05 800.2,204.91 0,0 -384.1,-572.81 -269,-565.08 115.2,7.72 542.5,585.22 542.5,585.22 0,0 584.7,73.93 658,-274.28 73.1,-348.22 -86.7,-511.06 -173.7,-527.56 -86.9,-16.51 -636.6,22.21 -626.4,-50.04 10.2,-72.26 375.1,-207.88 585.9,-155.48 0,0 -260.9,-551.18 -559.3,-505.4 -298.4,45.77 -380.6,236.86 -565.5,261.82 -184.9,24.91 -323.6,-17.29 -233.5,-72.62 90,-55.33 406.2,-39.79 548.9,-175.94 142.7,-136.09 259.6,-221.65 -22.3,-262.81 -281.8,-41.15 -779.9,23.28 -867.5,243.3 -87.8,220.03 -87.8,220.03 -87.8,220.03" /></g><g
         transform="scale(1.50561)"
         id="g44"><path
           id="path46"
           style="fill:#c7dcfb;fill-opacity:1;fill-rule:nonzero;stroke:none"
           d="m 16300,7483.13 c 0,0 -1560.9,-408.24 -1767.9,-952.81 0,0 -6.9,-248.47 -176.5,-524.31 l -6.3,-109.45 c 0,0 181.9,362.97 272.4,409 0,0 -315.3,501.32 1678.3,1177.57" /></g><g
         transform="scale(1.34061)"
         id="g48"><path
           id="path50"
           style="fill:#c7dcfb;fill-opacity:1;fill-rule:nonzero;stroke:none"
           d="m 16122.4,6745.19 c 0,0 -288.6,-387.8 -165.5,-887.05 l 69.4,14.4 c 0,0 -35.3,544.15 119.2,807.98 154.5,263.84 -23.1,64.67 -23.1,64.67" /></g><g
         transform="scale(1.42509)"
         id="g52"><path
           id="path54"
           style="fill:#dfebfd;fill-opacity:1;fill-rule:nonzero;stroke:none"
           d="m 13846.4,8448.85 c 0,0 -859.9,188.81 -686.1,851.44 0,0 170.3,426.21 437.6,603.54 0,0 95.7,-880.59 258.5,-852.66 162.8,27.93 -177.4,973.53 -177.4,973.53 0,0 661.4,607.1 974.2,669.8 0,0 -233.7,-958.99 -82.8,-891.85 150.8,67.13 440.3,1053.75 440.3,1053.75 0,0 749.3,387.7 1019.3,-44.1 270,-431.8 135.5,-729.4 26.8,-794.5 -108.7,-65.05 -866.3,-284 -817,-376.06 49.3,-92.07 606.5,-94.4 863.9,79.97 0,0 -78.8,-869.33 -502.4,-954.9 -423.5,-85.58 -628.2,130.62 -888.9,72.97 -260.8,-57.64 -426.2,-182.69 -278,-212.67 148.2,-29.99 565.5,146.86 824.3,34.27 258.9,-112.58 458.2,-169.88 99.7,-364.15 -358.5,-194.27 -1059.3,-353.24 -1285.7,-100.81 -226.3,252.43 -226.3,252.43 -226.3,252.43" /></g><g
         transform="scale(1.37368)"
         id="g56"><path
           id="path58"
           style="fill:#dfebfd;fill-opacity:1;fill-rule:nonzero;stroke:none"
           d="m 16300,10950.4 c 0,0 -1925.6,-1338.64 -1935.4,-2185.34 0,0 115,-342.62 21.6,-803.87 l 46.3,-152.51 c 0,0 66.5,586.34 166.9,694.5 0,0 -681.2,526.2 1700.6,2447.22" /></g><g
         transform="scale(1.23535)"
         id="g60"><path
           id="path62"
           style="fill:#dfebfd;fill-opacity:1;fill-rule:nonzero;stroke:none"
           d="m 15997.2,8852.66 c 0,0 -197.6,-667.01 216.3,-1280.55 l 86.5,53.83 c 0,0 -317.4,717.78 -239.5,1150.79 77.9,433.01 -63.3,75.93 -63.3,75.93" /></g><path
         id="path64"
         style="fill:#78acea;fill-opacity:1;fill-rule:nonzero;stroke:none"
         d="M 10115.4,12493.1 8940.2,3493.4 c -38.97,-298.4 193.35,-563.1 494.3,-563.1 h 1724 l -972,9595.3 -71.1,-32.5" /><path
         id="path66"
         style="fill:#699dee;fill-opacity:1;fill-rule:nonzero;stroke:none"
         d="M 10115.4,12493.1 9589.3,3550.8 c -19.8,-336.6 247.82,-620.5 585,-620.5 h 2571.2 l -2630.1,9562.8" /><path
         id="path68"
         style="fill:#5288d8;fill-opacity:1;fill-rule:nonzero;stroke:none"
         d="m 10095.6,12420.1 255.8,-8869.3 c -19.8,-336.6 247.8,-620.5 585,-620.5 h 2571.2 l -3412,9489.8" /><g
         transform="scale(1.40984)"
         id="g70"><path
           id="path72"
           style="fill:#d7e9ff;fill-opacity:1;fill-rule:nonzero;stroke:none"
           d="M 15892.5,2078.46 H 8701.62 c -179.52,0 -333.44,128.31 -365.71,304.93 l -1094.17,5983.8 c -49.72,271.67 158.96,521.95 435.16,521.95 h 7106.2 c 179.5,0 333.4,-128.3 365.7,-304.91 l 1109.4,-6067.07 c 41.8,-228.32 -133.5,-438.7 -365.7,-438.7" /></g><g
         transform="scale(1.32643)"
         id="g74"><path
           id="path76"
           style="fill:#f99746;fill-opacity:1;fill-rule:nonzero;stroke:none"
           d="M 7848.44,8067.36 H 16300 l -216.7,1200.82 c -18.8,104.17 -109.5,179.94 -215.4,179.94 H 7681.6 c -44.71,0 -78.48,-40.53 -70.49,-84.55 l 237.33,-1296.21" /></g><path
         id="path78"
         style="fill:#78acea;fill-opacity:1;fill-rule:nonzero;stroke:none"
         d="m 10672.5,13011.6 c -268.1,0 -486.1,-217.9 -486.1,-485.9 h 93.4 c 0,216.5 176.1,392.6 392.7,392.6 216.5,0 392.7,-176.1 392.7,-392.6 0,-43.5 -7,-85.3 -20.2,-124.3 -38.5,-115.5 -129.3,-207.1 -244.1,-246.8 -33.6,-11.7 -69.1,-19 -106.1,-21 v -93.4 c 43.2,1.9 84.7,9.5 124.2,22 157.7,49.9 280.8,178.3 323.4,339.2 10.5,39.7 16.1,81.3 16.1,124.3 0,268 -218,485.9 -486,485.9" /><path
         id="path80"
         style="fill:#78acea;fill-opacity:1;fill-rule:nonzero;stroke:none"
         d="m 10822.8,12090.3 c 0,-9.7 -1.4,-19.2 -3.8,-28.1 -12.3,-44.5 -53,-77.1 -101.4,-77.1 -58.1,0 -105.3,47.1 -105.3,105.2 0,58.1 47.2,105.3 105.3,105.3 33.9,0 64,-16.2 83.3,-41 13.8,-17.8 21.9,-40.1 21.9,-64.3" /><path
         id="path82"
         style="fill:#78acea;fill-opacity:1;fill-rule:nonzero;stroke:none"
         d="m 12415,13011.6 c -268,0 -486,-217.9 -486,-485.9 h 93.3 c 0,216.5 176.2,392.6 392.7,392.6 216.6,0 392.7,-176.1 392.7,-392.6 0,-43.5 -7.1,-85.3 -20.2,-124.3 -38.6,-115.5 -129.3,-207.1 -244.1,-246.8 -33.5,-11.7 -69.1,-19 -106.1,-21 v -93.4 c 43.1,1.9 84.7,9.5 124.2,22 157.7,49.9 280.9,178.3 323.5,339.2 10.5,39.7 16.1,81.3 16.1,124.3 0,268 -218.1,485.9 -486.1,485.9" /><path
         id="path84"
         style="fill:#78acea;fill-opacity:1;fill-rule:nonzero;stroke:none"
         d="m 12565.2,12090.3 c 0,-9.7 -1.3,-19.2 -3.7,-28.1 -12.3,-44.5 -53,-77.1 -101.5,-77.1 -58.1,0 -105.2,47.1 -105.2,105.2 0,58.1 47.1,105.3 105.2,105.3 34,0 64.2,-16.2 83.4,-41 13.7,-17.8 21.8,-40.1 21.8,-64.3" /><path
         id="path86"
         style="fill:#78acea;fill-opacity:1;fill-rule:nonzero;stroke:none"
         d="m 14157.6,13011.6 c -268,0 -486,-217.9 -486,-485.9 h 93.2 c 0,216.5 176.1,392.6 392.8,392.6 216.5,0 392.7,-176.1 392.7,-392.6 0,-43.5 -7.1,-85.3 -20.3,-124.3 -38.5,-115.5 -129.3,-207.1 -244,-246.8 -33.6,-11.7 -69.2,-19 -106.2,-21 v -93.4 c 43.1,1.9 84.7,9.5 124.2,22 157.8,50 280.8,178.3 323.4,339.2 10.5,39.7 16.1,81.3 16.1,124.3 0,268 -218,485.9 -485.9,485.9" /><path
         id="path88"
         style="fill:#78acea;fill-opacity:1;fill-rule:nonzero;stroke:none"
         d="m 14307.8,12090.3 c 0,-9.7 -1.4,-19.2 -3.8,-28.1 -12.3,-44.5 -53,-77.1 -101.4,-77.1 -58.1,0 -105.3,47.1 -105.3,105.2 0,58.1 47.2,105.3 105.3,105.3 33.9,0 64,-16.2 83.4,-41 13.7,-17.8 21.8,-40.1 21.8,-64.3" /><g
         transform="scale(1.00528)"
         id="g90"><path
           id="path92"
           style="fill:#78acea;fill-opacity:1;fill-rule:nonzero;stroke:none"
           d="m 15816.5,12943.2 c -266.6,0 -483.4,-216.8 -483.4,-483.4 h 92.8 c 0,215.4 175.2,390.6 390.6,390.6 215.4,0 390.7,-175.2 390.7,-390.6 0,-43.2 -7.1,-84.8 -20.1,-123.6 -38.4,-114.8 -128.6,-206 -242.8,-245.5 -33.4,-11.6 -68.8,-18.8 -105.6,-20.9 v -92.9 c 42.8,2 84.3,9.4 123.6,21.9 157,49.8 279.3,177.4 321.7,337.4 10.4,39.5 16,81 16,123.6 0,266.6 -216.9,483.4 -483.5,483.4" /></g><path
         id="path94"
         style="fill:#78acea;fill-opacity:1;fill-rule:nonzero;stroke:none"
         d="m 16050.4,12090.3 c 0,-9.7 -1.4,-19.2 -3.8,-28.1 -12.3,-44.5 -53.1,-77.1 -101.5,-77.1 -58.1,0 -105.2,47.1 -105.2,105.2 0,58.1 47.1,105.3 105.2,105.3 33.9,0 64.1,-16.2 83.4,-41 13.8,-17.8 21.9,-40.1 21.9,-64.3" /><g
         transform="scale(1.11218)"
         id="g96"><path
           id="path98"
           style="fill:#78acea;fill-opacity:1;fill-rule:nonzero;stroke:none"
           d="m 15863,11699.1 c -240.9,0 -437,-195.9 -437,-436.9 h 83.8 c 0,194.7 158.6,353.1 353.2,353.1 194.7,0 353.1,-158.4 353.1,-353.1 0,-39.1 -6.4,-76.7 -18.2,-111.8 -34.7,-103.7 -116.3,-186.1 -219.5,-221.8 -30.1,-10.5 -62.2,-17.1 -95.3,-18.9 v -84 c 38.7,1.8 76.1,8.5 111.6,19.8 141.8,44.9 252.6,160.3 290.8,304.9 9.5,35.8 14.5,73.2 14.5,111.8 0,241 -196,436.9 -437,436.9" /></g><g
         transform="scale(1.09158)"
         id="g100"><path
           id="path102"
           style="fill:#78acea;fill-opacity:1;fill-rule:nonzero;stroke:none"
           d="m 16300,11075.9 c 0,-8.9 -1.3,-17.5 -3.5,-25.7 -11.2,-40.8 -48.4,-70.7 -92.9,-70.7 -53.2,0 -96.4,43.2 -96.4,96.4 0,53.3 43.2,96.5 96.4,96.5 31.2,0 58.8,-14.8 76.3,-37.6 12.7,-16.3 20.1,-36.7 20.1,-58.9" /></g><g
         transform="scale(1.21909)"
         id="g104"><path
           id="path106"
           style="fill:#78acea;fill-opacity:1;fill-rule:nonzero;stroke:none"
           d="m 15901.4,10673.2 c -219.9,0 -398.7,-178.7 -398.7,-398.6 h 76.5 c 0,177.7 144.5,322.1 322.2,322.1 177.6,0 322.1,-144.4 322.1,-322.1 0,-35.6 -5.9,-69.9 -16.6,-101.9 -31.7,-94.7 -106.1,-169.9 -200.2,-202.47 -27.5,-9.55 -56.7,-15.54 -87.1,-17.23 v -76.59 c 35.5,1.59 69.5,7.77 101.9,18.07 129.3,40.92 230.4,146.22 265.3,278.22 8.6,32.5 13.2,66.7 13.2,101.9 0,219.9 -178.8,398.6 -398.6,398.6" /></g><g
         transform="scale(1.19849)"
         id="g108"><path
           id="path110"
           style="fill:#78acea;fill-opacity:1;fill-rule:nonzero;stroke:none"
           d="m 16300,10087.9 c 0,-8.1 -1.2,-16 -3.2,-23.4 -10.2,-37.1 -44.3,-64.4 -84.7,-64.4 -48.4,0 -87.7,39.4 -87.7,87.8 0,48.5 39.3,87.9 87.7,87.9 28.3,0 53.5,-13.5 69.6,-34.2 11.5,-14.9 18.3,-33.5 18.3,-53.7" /></g><g
         transform="scale(1.32599)"
         id="g112"><path
           id="path114"
           style="fill:#78acea;fill-opacity:1;fill-rule:nonzero;stroke:none"
           d="m 15933.5,9812.75 c -202.1,0 -366.5,-164.34 -366.5,-366.46 h 70.3 c 0,163.29 132.9,296.12 296.2,296.12 163.3,0 296.2,-132.83 296.2,-296.12 0,-32.8 -5.3,-64.31 -15.2,-93.75 -29.1,-87.03 -97.5,-156.16 -184.2,-186.11 -25.3,-8.79 -52,-14.29 -79.9,-15.85 v -70.41 c 32.5,1.46 63.8,7.14 93.6,16.61 118.9,37.62 211.8,134.47 243.9,255.76 7.9,29.95 12.1,61.38 12.1,93.75 0,202.12 -164.4,366.46 -366.5,366.46" /></g><g
         transform="scale(1.30539)"
         id="g116"><path
           id="path118"
           style="fill:#78acea;fill-opacity:1;fill-rule:nonzero;stroke:none"
           d="m 16300,9261.81 c 0,-7.43 -1,-14.69 -2.8,-21.51 -9.5,-34.1 -40.7,-59.11 -77.8,-59.11 -44.5,0 -80.6,36.11 -80.6,80.62 0,44.51 36.1,80.63 80.6,80.63 26,0 49,-12.34 63.8,-31.4 10.6,-13.64 16.8,-30.69 16.8,-49.23" /></g><g
         transform="scale(1.04307)"
         id="g120"><path
           id="path122"
           style="fill:#afcdfb;fill-opacity:1;fill-rule:nonzero;stroke:none"
           d="m 16195.7,7390.32 h -543.3 c -62.8,0 -124.1,51.29 -136.2,114.18 l -104.8,543.3 c -12.1,62.8 29.3,114.18 92.2,114.18 h 543.3 c 62.8,0 124.1,-51.38 136.1,-114.18 l 104.9,-543.3 c 12.1,-62.89 -29.4,-114.18 -92.2,-114.18" /></g><g
         transform="scale(1.1308)"
         id="g124"><path
           id="path126"
           style="fill:#afcdfb;fill-opacity:1;fill-rule:nonzero;stroke:none"
           d="m 16203.8,6816.96 h -501.2 c -57.9,0 -114.4,47.31 -125.5,105.32 l -96.8,501.15 c -11.1,57.93 27.2,105.33 85.1,105.33 h 501.1 c 58,0 114.5,-47.4 125.7,-105.33 l 96.7,-501.15 c 11.1,-58.01 -27.1,-105.32 -85.1,-105.32" /></g><g
         transform="scale(1.21853)"
         id="g128"><path
           id="path130"
           style="fill:#78acea;fill-opacity:1;fill-rule:nonzero;stroke:none"
           d="m 16210.8,6326.16 h -465.1 c -53.8,0 -106.2,43.91 -116.6,97.74 l -89.7,465.07 c -10.4,53.76 25.1,97.74 78.9,97.74 h 465 c 53.8,0 106.2,-43.98 116.7,-97.74 l 89.7,-465.07 c 10.3,-53.83 -25.2,-97.74 -78.9,-97.74" /></g><path
         id="path132"
         style="fill:#afcdfb;fill-opacity:1;fill-rule:nonzero;stroke:none"
         d="m 12603.2,7708.6 h -566.7 c -65.5,0 -129.5,53.5 -142.1,119.1 l -109.3,566.7 c -12.7,65.5 30.6,119.1 96.1,119.1 h 566.7 c 65.5,0 129.5,-53.6 142.1,-119.1 l 109.3,-566.7 c 12.7,-65.6 -30.6,-119.1 -96.1,-119.1" /><path
         id="path134"
         style="fill:#f99746;fill-opacity:1;fill-rule:nonzero;stroke:none"
         d="m 11982.1,9409.9 h -243.6 c -28.1,0 -55.6,23 -61,51.2 l -47,243.5 c -5.4,28.2 13.2,51.2 41.3,51.2 h 243.5 c 28.2,0 55.7,-23 61.1,-51.2 l 47,-243.5 c 5.4,-28.2 -13.2,-51.2 -41.3,-51.2" /><path
         id="path136"
         style="fill:#afcdfb;fill-opacity:1;fill-rule:nonzero;stroke:none"
         d="m 14033.2,7708.6 h -566.7 c -65.5,0 -129.5,53.5 -142.1,119.1 l -109.3,566.7 c -12.6,65.5 30.6,119.1 96.1,119.1 h 566.7 c 65.5,0 129.5,-53.6 142.1,-119.1 l 109.3,-566.7 c 12.7,-65.6 -30.6,-119.1 -96.1,-119.1" /><path
         id="path138"
         style="fill:#afcdfb;fill-opacity:1;fill-rule:nonzero;stroke:none"
         d="m 15463.2,7708.6 h -566.7 c -65.5,0 -129.4,53.5 -142.1,119.1 l -109.3,566.7 c -12.6,65.5 30.6,119.1 96.1,119.1 h 566.7 c 65.6,0 129.5,-53.6 142.1,-119.1 l 109.3,-566.7 c 12.7,-65.6 -30.6,-119.1 -96.1,-119.1" /><g
         transform="scale(1.30626)"
         id="g140"><path
           id="path142"
           style="fill:#78acea;fill-opacity:1;fill-rule:nonzero;stroke:none"
           d="m 16216.7,5901.26 h -433.8 c -50.2,0 -99.2,40.96 -108.8,91.17 l -83.7,433.84 c -9.7,50.14 23.4,91.17 73.6,91.17 h 433.8 c 50.2,0 99.2,-41.03 108.8,-91.17 l 83.7,-433.84 c 9.7,-50.21 -23.4,-91.17 -73.6,-91.17" /></g><g
         transform="scale(1.0285)"
         id="g144"><path
           id="path146"
           style="fill:#afcdfb;fill-opacity:1;fill-rule:nonzero;stroke:none"
           d="m 16194.2,8691.66 h -551 c -63.7,0 -125.9,52.11 -138.1,115.8 l -106.3,550.99 c -12.3,63.69 29.7,115.8 93.4,115.8 h 551 c 63.7,0 125.9,-52.11 138.2,-115.8 l 106.2,-550.99 c 12.4,-63.69 -29.7,-115.8 -93.4,-115.8" /></g><g
         transform="scale(1.11623)"
         id="g148"><path
           id="path150"
           style="fill:#afcdfb;fill-opacity:1;fill-rule:nonzero;stroke:none"
           d="m 16202.5,8008.54 h -507.7 c -58.6,0 -115.9,48.02 -127.3,106.7 l -97.9,507.69 c -11.3,58.68 27.4,106.7 86.1,106.7 h 507.7 c 58.8,0 116,-48.02 127.3,-106.7 l 98,-507.69 c 11.3,-58.68 -27.5,-106.7 -86.2,-106.7" /></g><g
         transform="scale(1.20396)"
         id="g152"><path
           id="path154"
           style="fill:#78acea;fill-opacity:1;fill-rule:nonzero;stroke:none"
           d="m 16209.6,7424.98 h -470.7 c -54.4,0 -107.4,44.52 -117.9,98.92 l -90.9,470.7 c -10.4,54.4 25.5,98.92 79.9,98.92 h 470.7 c 54.4,0 107.5,-44.52 118,-98.92 l 90.8,-470.7 c 10.5,-54.4 -25.5,-98.92 -79.9,-98.92" /></g><g
         transform="scale(1.29169)"
         id="g156"><path
           id="path158"
           style="fill:#78acea;fill-opacity:1;fill-rule:nonzero;stroke:none"
           d="m 16215.8,6920.68 h -438.7 c -50.8,0 -100.2,41.5 -110,92.21 l -84.7,438.72 c -9.7,50.71 23.8,92.21 74.5,92.21 h 438.7 c 50.7,0 100.2,-41.5 110,-92.21 l 84.6,-438.72 c 9.8,-50.71 -23.6,-92.21 -74.4,-92.21" /></g><g
         transform="scale(1.0585)"
         id="g160"><path
           id="path162"
           style="fill:#afcdfb;fill-opacity:1;fill-rule:nonzero;stroke:none"
           d="m 16197.3,6050.05 h -535.4 c -61.9,0 -122.3,50.64 -134.2,112.52 l -103.3,535.38 c -12,61.88 28.9,112.52 90.8,112.52 h 535.4 c 61.9,0 122.3,-50.64 134.2,-112.52 l 103.3,-535.38 c 11.9,-61.88 -28.9,-112.52 -90.8,-112.52" /></g><g
         transform="scale(1.14624)"
         id="g164"><path
           id="path166"
           style="fill:#afcdfb;fill-opacity:1;fill-rule:nonzero;stroke:none"
           d="m 16205.1,5586.97 h -494.4 c -57.2,0 -113,46.76 -124,103.9 l -95.3,494.4 c -11.1,57.15 26.7,103.91 83.8,103.91 h 494.4 c 57.1,0 113,-46.76 124,-103.91 l 95.3,-494.4 c 11.1,-57.14 -26.7,-103.9 -83.8,-103.9" /></g><g
         transform="scale(1.23397)"
         id="g168"><path
           id="path170"
           style="fill:#78acea;fill-opacity:1;fill-rule:nonzero;stroke:none"
           d="m 16211.8,5189.76 h -459.2 c -53.1,0 -104.9,43.43 -115.2,96.52 l -88.6,459.24 c -10.2,53.09 24.8,96.52 77.9,96.52 h 459.3 c 53.1,0 104.9,-43.43 115.1,-96.52 l 88.6,-459.24 c 10.3,-53.09 -24.8,-96.52 -77.9,-96.52" /></g><path
         id="path172"
         style="fill:#afcdfb;fill-opacity:1;fill-rule:nonzero;stroke:none"
         d="m 12854.8,6404 h -566.7 c -65.5,0 -129.4,53.6 -142.1,119.1 l -109.3,566.7 c -12.6,65.5 30.6,119.1 96.2,119.1 h 566.7 c 65.5,0 129.4,-53.6 142,-119.1 l 109.4,-566.7 c 12.6,-65.5 -30.7,-119.1 -96.2,-119.1" /><path
         id="path174"
         style="fill:#afcdfb;fill-opacity:1;fill-rule:nonzero;stroke:none"
         d="m 14284.8,6404 h -566.7 c -65.5,0 -129.4,53.6 -142.1,119.1 l -109.3,566.7 c -12.6,65.5 30.7,119.1 96.2,119.1 h 566.7 c 65.5,0 129.4,-53.6 142.1,-119.1 l 109.3,-566.7 c 12.6,-65.5 -30.6,-119.1 -96.2,-119.1" /><path
         id="path176"
         style="fill:#afcdfb;fill-opacity:1;fill-rule:nonzero;stroke:none"
         d="m 15714.9,6404 h -566.7 c -65.6,0 -129.5,53.6 -142.1,119.1 l -109.4,566.7 c -12.6,65.5 30.7,119.1 96.2,119.1 h 566.7 c 65.5,0 129.4,-53.6 142.1,-119.1 l 109.3,-566.7 c 12.6,-65.5 -30.6,-119.1 -96.1,-119.1" /><g
         transform="scale(1.3217)"
         id="g178"><path
           id="path180"
           style="fill:#78acea;fill-opacity:1;fill-rule:nonzero;stroke:none"
           d="m 16217.7,4845.28 h -428.8 c -49.5,0 -97.9,40.55 -107.5,90.11 l -82.7,428.76 c -9.5,49.56 23.2,90.12 72.7,90.12 h 428.9 c 49.5,0 97.9,-40.56 107.4,-90.12 l 82.8,-428.76 c 9.5,-49.56 -23.3,-90.11 -72.8,-90.11" /></g><g
         transform="scale(1.07394)"
         id="g182"><path
           id="path184"
           style="fill:#afcdfb;fill-opacity:1;fill-rule:nonzero;stroke:none"
           d="M 16198.7,4748.38 H 15671 c -61,0 -120.5,49.91 -132.3,110.9 l -101.8,527.68 c -11.7,60.99 28.5,110.9 89.5,110.9 h 527.8 c 61,0 120.5,-49.91 132.2,-110.9 l 101.9,-527.68 c 11.7,-60.99 -28.6,-110.9 -89.6,-110.9" /></g><g
         transform="scale(1.16167)"
         id="g186"><path
           id="path188"
           style="fill:#afcdfb;fill-opacity:1;fill-rule:nonzero;stroke:none"
           d="m 16206.3,4389.78 h -487.8 c -56.4,0 -111.4,46.14 -122.3,102.53 l -94.1,487.83 c -10.8,56.38 26.3,102.52 82.8,102.52 h 487.8 c 56.4,0 111.4,-46.14 122.3,-102.52 l 94.2,-487.83 c 10.8,-56.39 -26.5,-102.53 -82.9,-102.53" /></g><g
         transform="scale(1.2494)"
         id="g190"><path
           id="path192"
           style="fill:#78acea;fill-opacity:1;fill-rule:nonzero;stroke:none"
           d="m 16212.9,4081.54 h -453.6 c -52.4,0 -103.5,42.9 -113.6,95.33 l -87.6,453.58 c -10.1,52.42 24.6,95.32 77,95.32 h 453.6 c 52.4,0 103.6,-42.9 113.7,-95.32 l 87.5,-453.58 c 10.1,-52.43 -24.5,-95.33 -77,-95.33" /></g><path
         id="path194"
         style="fill:#afcdfb;fill-opacity:1;fill-rule:nonzero;stroke:none"
         d="m 13106.5,5099.5 h -566.7 c -65.6,0 -129.5,53.6 -142.1,119.1 l -109.3,566.7 c -12.7,65.5 30.6,119.1 96.1,119.1 h 566.7 c 65.5,0 129.4,-53.6 142.1,-119.1 l 109.3,-566.7 c 12.6,-65.5 -30.6,-119.1 -96.1,-119.1" /><path
         id="path196"
         style="fill:#f99746;fill-opacity:1;fill-rule:nonzero;stroke:none"
         d="m 14536.5,5099.5 h -566.7 c -65.5,0 -129.5,53.6 -142.1,119.1 l -109.3,566.7 c -12.7,65.5 30.6,119.1 96.1,119.1 h 566.7 c 65.5,0 129.5,-53.6 142.1,-119.1 l 109.3,-566.7 c 12.7,-65.5 -30.6,-119.1 -96.1,-119.1" /><path
         id="path198"
         style="fill:#afcdfb;fill-opacity:1;fill-rule:nonzero;stroke:none"
         d="m 15966.5,5099.5 h -566.7 c -65.5,0 -129.5,53.6 -142.1,119.1 l -109.3,566.7 c -12.6,65.5 30.6,119.1 96.1,119.1 h 566.7 c 65.5,0 129.5,-53.6 142.1,-119.1 l 109.3,-566.7 c 12.7,-65.5 -30.6,-119.1 -96.1,-119.1" /><g
         transform="scale(1.33714)"
         id="g200"><path
           id="path202"
           style="fill:#78acea;fill-opacity:1;fill-rule:nonzero;stroke:none"
           d="m 16218.7,3813.75 h -423.8 c -49,0 -96.9,40.09 -106.3,89.07 l -81.7,423.82 c -9.5,48.98 22.9,89.07 71.8,89.07 h 423.9 c 48.9,0 96.8,-40.09 106.2,-89.07 l 81.8,-423.82 c 9.4,-48.98 -22.9,-89.07 -71.9,-89.07" /></g><g
         transform="scale(1.08851)"
         id="g204"><path
           id="path206"
           style="fill:#afcdfb;fill-opacity:1;fill-rule:nonzero;stroke:none"
           d="m 16200,3554.04 h -520.6 c -60.1,0 -118.9,49.24 -130.5,109.41 l -100.4,520.62 c -11.6,60.27 28.2,109.51 88.3,109.51 h 520.7 c 60.1,0 118.8,-49.24 130.5,-109.51 l 100.4,-520.62 c 11.6,-60.17 -28.1,-109.41 -88.4,-109.41" /></g><g
         transform="scale(1.17624)"
         id="g208"><path
           id="path210"
           style="fill:#afcdfb;fill-opacity:1;fill-rule:nonzero;stroke:none"
           d="m 16207.6,3288.96 h -481.8 c -55.8,0 -110.1,45.57 -120.8,101.25 l -93,481.79 c -10.7,55.77 26.1,101.34 81.8,101.34 h 481.8 c 55.6,0 110,-45.57 120.8,-101.34 l 92.9,-481.79 c 10.7,-55.68 -26,-101.25 -81.7,-101.25" /></g><g
         transform="scale(1.26397)"
         id="g212"><path
           id="path214"
           style="fill:#78acea;fill-opacity:1;fill-rule:nonzero;stroke:none"
           d="m 16214,3060.68 h -448.3 c -51.9,0 -102.5,42.4 -112.5,94.22 l -86.4,448.35 c -10.1,51.9 24.2,94.31 76,94.31 h 448.3 c 51.9,0 102.5,-42.41 112.5,-94.31 l 86.4,-448.35 c 10,-51.82 -24.2,-94.22 -76,-94.22" /></g><path
         id="path216"
         style="fill:#afcdfb;fill-opacity:1;fill-rule:nonzero;stroke:none"
         d="m 13343.9,3868.6 h -566.7 c -65.5,0 -129.5,53.6 -142.1,119.1 l -109.3,566.7 c -12.7,65.6 30.6,119.2 96.1,119.2 h 566.7 c 65.5,0 129.5,-53.6 142.1,-119.2 l 109.3,-566.7 c 12.7,-65.5 -30.6,-119.1 -96.1,-119.1" /><path
         id="path218"
         style="fill:#afcdfb;fill-opacity:1;fill-rule:nonzero;stroke:none"
         d="m 14773.9,3868.6 h -566.7 c -65.5,0 -129.5,53.6 -142.1,119.1 l -109.3,566.7 c -12.6,65.6 30.6,119.2 96.1,119.2 h 566.7 c 65.6,0 129.5,-53.6 142.1,-119.2 l 109.3,-566.7 c 12.7,-65.5 -30.6,-119.1 -96.1,-119.1" /><g
         transform="scale(1.00078)"
         id="g220"><path
           id="path222"
           style="fill:#afcdfb;fill-opacity:1;fill-rule:nonzero;stroke:none"
           d="M 16191.3,3865.59 H 15625 c -65.4,0 -129.3,53.56 -142,119 l -109.2,566.26 c -12.6,65.55 30.6,119.11 96.1,119.11 h 566.3 c 65.5,0 129.3,-53.56 141.9,-119.11 l 109.3,-566.26 c 12.6,-65.44 -30.7,-119 -96.1,-119" /></g><path
         id="path224"
         style="fill:#afcdfb;fill-opacity:1;fill-rule:nonzero;stroke:none"
         d="m 13699.7,9633.6 h -1501.3 c -22.2,0 -40.3,18.1 -40.3,40.2 v 0 c 0,22.1 18.1,40.2 40.3,40.2 h 1501.3 c 22.1,0 40.2,-18.1 40.2,-40.2 v 0 c 0,-22.1 -18.1,-40.2 -40.2,-40.2" /><path
         id="path226"
         style="fill:#afcdfb;fill-opacity:1;fill-rule:nonzero;stroke:none"
         d="M 13745.4,9451.7 H 12244 c -22.1,0 -40.2,18.1 -40.2,40.3 v 0 c 0,22.1 18.1,40.2 40.2,40.2 h 1501.4 c 22.1,0 40.2,-18.1 40.2,-40.2 v 0 c 0,-22.2 -18.1,-40.3 -40.2,-40.3" /><path
         id="path228"
         style="fill:#ffffff;fill-opacity:1;fill-rule:nonzero;stroke:none"
         d="m 12089.5,10987.5 h -515.2 c -42.2,0 -76.7,34.6 -76.7,76.8 v 0 c 0,42.1 34.5,76.7 76.7,76.7 h 515.2 c 42.2,0 76.7,-34.6 76.7,-76.7 v 0 c 0,-42.2 -34.5,-76.8 -76.7,-76.8" /><path
         id="path230"
         style="fill:#ffffff;fill-opacity:1;fill-rule:nonzero;stroke:none"
         d="M 13503.2,10987.5 H 12988 c -42.2,0 -76.8,34.6 -76.8,76.8 v 0 c 0,42.1 34.6,76.7 76.8,76.7 h 515.2 c 42.2,0 76.7,-34.6 76.7,-76.7 v 0 c 0,-42.2 -34.5,-76.8 -76.7,-76.8" /><path
         id="path232"
         style="fill:#ffffff;fill-opacity:1;fill-rule:nonzero;stroke:none"
         d="m 14916.9,10987.5 h -515.2 c -42.2,0 -76.8,34.6 -76.8,76.8 v 0 c 0,42.1 34.6,76.7 76.8,76.7 h 515.2 c 42.2,0 76.7,-34.6 76.7,-76.7 v 0 c 0,-42.2 -34.5,-76.8 -76.7,-76.8" /><g
         transform="scale(1.00658)"
         id="g234"><path
           id="path236"
           style="fill:#ffffff;fill-opacity:1;fill-rule:nonzero;stroke:none"
           d="m 16223.7,10915.7 h -511.8 c -42,0 -76.2,34.3 -76.2,76.2 v 0 c 0,41.9 34.2,76.2 76.2,76.2 h 511.8 c 41.9,0 76.3,-34.3 76.3,-76.2 v 0 c 0,-41.9 -34.4,-76.2 -76.3,-76.2" /></g><g
         transform="scale(1.09331)"
         id="g238"><path
           id="path240"
           style="fill:#ffffff;fill-opacity:1;fill-rule:nonzero;stroke:none"
           d="m 16229.8,10049.8 h -471.2 c -38.6,0 -70.1,31.6 -70.1,70.2 v 0 c 0,38.6 31.5,70.2 70.1,70.2 h 471.2 c 38.6,0 70.2,-31.6 70.2,-70.2 v 0 c 0,-38.6 -31.6,-70.2 -70.2,-70.2" /></g><g
         transform="scale(1.18004)"
         id="g242"><path
           id="path244"
           style="fill:#ffffff;fill-opacity:1;fill-rule:nonzero;stroke:none"
           d="m 16235,9311.17 h -436.6 c -35.8,0 -65.1,29.26 -65.1,65.02 v 0 c 0,35.76 29.3,65.02 65.1,65.02 h 436.6 c 35.8,0 65,-29.26 65,-65.02 v 0 c 0,-35.76 -29.2,-65.02 -65,-65.02" /></g><g
         transform="scale(1.26677)"
         id="g246"><path
           id="path248"
           style="fill:#ffffff;fill-opacity:1;fill-rule:nonzero;stroke:none"
           d="m 16239.5,8673.67 h -406.8 c -33.3,0 -60.6,27.26 -60.6,60.57 v 0 c 0,33.32 27.3,60.57 60.6,60.57 h 406.8 c 33.3,0 60.5,-27.25 60.5,-60.57 v 0 c 0,-33.31 -27.2,-60.57 -60.5,-60.57" /></g><g
         transform="scale(1.13507)"
         id="g250"><path
           id="path252"
           style="fill:#c65447;fill-opacity:1;fill-rule:nonzero;stroke:none"
           d="m 15252.9,7865.79 c -100.1,0 -173.2,31.8 -212.9,93.56 -76.3,118.41 -17.5,284.39 175,493.28 140.5,152.58 304.6,273.46 306.2,274.69 6.4,4.76 15.5,3.35 20.3,-3.08 4.7,-6.43 3.3,-15.51 -3.1,-20.26 -6.5,-4.76 -638.9,-473.02 -474.1,-728.95 52.2,-81.05 164,-86.42 248.7,-76.65 156.7,18.15 361,102.55 546.6,225.81 192,127.57 327.4,271.26 371.2,394.42 28.8,80.7 19.9,137.88 -26.5,169.95 -59.8,41.41 -184.8,41.49 -334.3,0.08 -143.3,-39.55 -287.4,-110.82 -376.2,-185.97 -6.1,-5.2 -15.2,-4.41 -20.4,1.67 -5.2,6.08 -4.5,15.24 1.6,20.44 91.8,77.71 240.2,151.18 387.2,191.8 160.1,44.31 290.8,42.72 358.6,-4.15 40.2,-27.84 79.2,-85.72 37.3,-203.6 -45.9,-128.89 -185.3,-277.87 -382.5,-408.78 -189.1,-125.63 -398.2,-211.8 -559.2,-230.39 -22.2,-2.55 -43.4,-3.87 -63.5,-3.87" /></g><g
         transform="scale(1.24466)"
         id="g254"><path
           id="path256"
           style="fill:#ffb27d;fill-opacity:1;fill-rule:nonzero;stroke:none"
           d="m 16300,7923.79 -47,88.62 c 0,0 23.3,158.01 -174.6,257.94 0,0 -72.4,29.45 -113.2,-29.55 -37.6,-54.34 71.7,-44.53 65.8,-137.49 -5.9,-92.99 38.3,-147.54 99.7,-177.83 l 50.8,-58.81 118.5,57.12" /></g><g
         transform="scale(1.38749)"
         id="g258"><path
           id="path260"
           style="fill:#233862;fill-opacity:1;fill-rule:nonzero;stroke:none"
           d="m 16300,7298.2 c 0,0 -152.4,-748.39 -991.6,-992.93 -261.9,-76.33 -857,786.02 -857,786.02 0,0 20.9,79.5 152,61.26 0,0 579.4,-383.57 652.3,-425.3 64.8,-36.97 490.4,475.32 684.5,557.97 194,82.64 359.8,12.98 359.8,12.98" /></g><g
         transform="scale(1.25925)"
         id="g262"><path
           id="path264"
           style="fill:#c65447;fill-opacity:1;fill-rule:nonzero;stroke:none"
           d="m 16263,8242.6 37,-200.06 -1006.3,-186.33 -37.1,200.03 1006.4,186.36" /></g><g
         transform="scale(1.1815)"
         id="g266"><path
           id="path268"
           style="fill:#ffb27d;fill-opacity:1;fill-rule:nonzero;stroke:none"
           d="m 16030.9,8433.58 269.1,-60.43 -39.5,213.19 -229.6,-152.76" /></g><g
         transform="scale(1.26783)"
         id="g270"><path
           id="path272"
           style="fill:#ffb27d;fill-opacity:1;fill-rule:nonzero;stroke:none"
           d="m 16281.2,8142.37 11.6,-62.82 c 7.2,-38.64 -18.4,-75.77 -57,-82.93 l -46.2,-8.56 -36.8,198.7 50.3,9.32 c 36.4,6.74 71.3,-17.31 78.1,-53.71" /></g><g
         transform="scale(1.48163)"
         id="g274"><path
           id="path276"
           style="fill:#233862;fill-opacity:1;fill-rule:nonzero;stroke:none"
           d="m 16202.5,2428.75 c 0,0 97.5,-88.95 78.5,-152.2 -19,-63.24 -107,-105.36 -118.9,-182.63 -11.9,-77.22 -59.5,-119.4 -102.2,-119.4 -42.8,0 -204.1,0 -204.1,0 0,0 -31.5,54.4 44.6,70.8 76.1,16.34 104.8,107.18 100.1,191.41 -4.8,84.3 7.1,196.68 7.1,196.68 l 161.7,37.46 33.2,-42.12" /></g><g
         transform="scale(1.36565)"
         id="g278"><path
           id="path280"
           style="fill:#233862;fill-opacity:1;fill-rule:nonzero;stroke:none"
           d="m 16281,2385.31 c 0,0 19,-219.6 -27.4,-242.45 l -594.2,1.17 c 0,0 0,68.62 95.4,83.85 95.4,15.23 263.1,71.1 291.5,195.58 28.3,124.41 234.7,-38.15 234.7,-38.15" /></g><g
         transform="scale(1.39539)"
         id="g282"><path
           id="path284"
           style="fill:#f99746;fill-opacity:1;fill-rule:nonzero;stroke:none"
           d="m 15443,5371.18 c 0,0 30.6,-376.81 66.7,-829.73 49,-615.39 107.9,-1371.16 113.8,-1514.35 10,-248.6 50.5,-646.34 50.5,-646.34 0,0 95.9,-94.45 287.7,-54.68 0,0 171.1,567.73 219.9,1168.42 0.8,9.89 1.6,19.78 2.3,29.74 45.4,611.51 116.1,1899.18 116.1,1899.18 l -857,-52.24" /></g><g
         transform="scale(1.39539)"
         id="g286"><path
           id="path288"
           style="fill:#ed7d2b;fill-opacity:1;fill-rule:nonzero;stroke:none"
           d="m 15443,5371.18 c 0,0 30.6,-376.81 66.7,-829.73 l 671.9,-1046.95 c 0.8,9.89 1.6,19.78 2.3,29.74 45.4,611.51 116.1,1899.18 116.1,1899.18 l -857,-52.24" /></g><g
         transform="scale(1.47277)"
         id="g290"><path
           id="path292"
           style="fill:#f99746;fill-opacity:1;fill-rule:nonzero;stroke:none"
           d="m 14764.4,5046.62 c 0,0 523.8,-1293.01 868.2,-1900.64 344.5,-607.7 452.1,-777.24 452.1,-777.24 0,0 197.4,77.74 215.3,130.71 0,0 -131.7,1173.09 -362.4,1459.09 -130.3,161.53 -283.4,646.47 -290.6,816.08 -7.2,169.54 -46.6,505.17 -46.6,505.17 l -836,-233.17" /></g><g
         transform="scale(1.39629)"
         id="g294"><path
           id="path296"
           style="fill:#ffb27d;fill-opacity:1;fill-rule:nonzero;stroke:none"
           d="m 16300,7424.82 c 0,0 -373.8,-180.38 -589.3,-113.46 0,0 53,66.93 145.8,116.73 -7.4,43.26 -13.2,80.8 -16.5,112.63 -9.2,73.47 -9.2,115.09 -9.2,115.09 l 144.3,113.45 136.8,108.55 c -10.8,-305.26 188.1,-452.99 188.1,-452.99" /></g><g
         transform="scale(1.41324)"
         id="g298"><path
           id="path300"
           style="fill:#2b478b;fill-opacity:1;fill-rule:nonzero;stroke:none"
           d="m 15224.7,5272.64 c 6.5,-5.66 13.8,-8.85 22.1,-8.85 80.3,1.63 313.7,-42.67 511,-22.5 167,16.14 314.5,64.46 472.6,133.74 21.3,9.69 69.6,35.52 68.8,58.09 -0.9,25.83 -3.3,62.06 -6.6,108.9 -6.6,92.13 -15.9,222.96 -18.9,378.07 -2.1,114.98 -0.9,243.27 7.4,379.2 0.5,9.13 1,18.32 1.4,27.52 2.4,49.82 3.5,99.99 3.5,149.02 0.9,158.08 -10.6,308.87 -33.5,443.52 -40.2,233.89 -115.5,416.91 -226.8,498.39 -14.8,11.32 -106.6,-33.01 -191.7,-74.19 -77.9,-37.91 -155.6,-41.94 -229.3,-27.45 l -73.7,-64.49 c -89.4,-81.39 -187.7,-193.5 -231,-362.9 -36,-143.57 -57.3,-403.18 -68.8,-672.56 -5.7,-122.56 -9.8,-245.12 -11.4,-362.01 v -4.03 c -0.9,-12.1 -0.9,-24.27 -0.9,-36.37 -4.1,-299.18 0,-537.07 5.8,-541.1" /></g><g
         transform="scale(1.38039)"
         id="g302"><path
           id="path304"
           style="fill:#ed985f;fill-opacity:1;fill-rule:nonzero;stroke:none"
           d="m 16300,7850.5 c 0,0 -95.6,-174.2 -277.5,-222.91 -9.3,74.31 -9.3,116.41 -9.3,116.41 l 145.9,114.76 140.9,-8.26" /></g><g
         transform="scale(1.39263)"
         id="g306"><path
           id="path308"
           style="fill:#ffb27d;fill-opacity:1;fill-rule:nonzero;stroke:none"
           d="m 15806.5,7680.93 c 0,0 357.6,-58.49 391.2,161.33 33.6,219.82 102.3,360.32 -124.5,406.96 -226.9,46.64 -284.2,-30.66 -313.5,-101.35 -29.3,-70.69 -45.3,-446.06 46.8,-466.94" /></g><g
         transform="scale(1.39772)"
         id="g310"><path
           id="path312"
           style="fill:#2c3a64;fill-opacity:1;fill-rule:nonzero;stroke:none"
           d="m 16268.2,8245.39 c 3.2,3.71 10.7,6.7 27.3,7.61 0,0 -13.3,8.29 -31.1,8.73 -3.4,23.08 -15.7,63.94 -55.4,73.88 0,0 21.3,-11.38 24.1,-35.93 -46,47.26 -144.6,81.66 -417.7,60.11 -359.8,-28.4 -241.2,-258.79 -194.6,-286.26 46.6,-27.46 163.9,47.83 250.6,40.94 86.8,-6.89 103.4,-132.31 132.8,-149.51 29.4,-17.22 17.8,13.22 57.7,31.22 39.8,18.01 43.6,-48 32.1,-90.93 -11.5,-42.92 43.2,-99.53 43.2,-99.53 0,0 0,0 55.3,59.57 55.3,59.57 107.5,311.9 82.4,365.7 -2.2,4.75 -4.4,9.56 -6.7,14.4" /></g><g
         transform="scale(1.24206)"
         id="g314"><path
           id="path316"
           style="fill:#ffb27d;fill-opacity:1;fill-rule:nonzero;stroke:none"
           d="m 16286.2,8033.46 c 0,0 13.8,54.47 -24,78.96 -37.8,24.5 -72.6,91.1 -88.5,82.08 -33,-18.69 18,-76.81 8.7,-149.28 -3.2,-25.45 55.8,-91.95 103.8,-11.76" /></g><g
         transform="scale(1.41172)"
         id="g318"><path
           id="path320"
           style="fill:#233862;fill-opacity:1;fill-rule:nonzero;stroke:none"
           d="m 16291.3,5926.47 c -2.2,115.11 -1,243.53 7.4,379.61 0.5,9.13 0.9,18.34 1.3,27.55 -33.5,166.11 -84.2,313.52 -158.9,318.34 0,0 -222.4,-349.58 150.2,-725.5" /></g><g
         transform="scale(1.43644)"
         id="g322"><path
           id="path324"
           style="fill:#ffb27d;fill-opacity:1;fill-rule:nonzero;stroke:none"
           d="m 16300,5232.1 c 0,0 -18.2,-177.18 -38.2,-210.66 -20,-33.49 -105.1,-140.56 -141.3,-161.58 -36.3,-21.03 22.1,141.11 14.6,172.65 -7.3,31.53 -29.7,-57.58 -45.8,-59.67 -15.9,-2.09 -11.8,78.12 -12.3,107.28 -0.7,29.17 77.6,101.22 105.3,163.32 27.6,62.17 117.7,-11.34 117.7,-11.34" /></g><g
         transform="scale(1.44969)"
         id="g326"><path
           id="path328"
           style="fill:#2b478b;fill-opacity:1;fill-rule:nonzero;stroke:none"
           d="m 15622.5,7233 c 0,0 217.4,-102.92 321.6,-261.13 161.7,-245.45 349,-1139.85 352.5,-1222.7 3.4,-82.78 -136.8,-667.52 -136.8,-667.52 0,0 -142.2,9.31 -178.9,81.12 0,0 28.4,600.82 10.4,639.45 -18,38.63 -592.8,805.89 -528.2,969.66 64.7,163.7 159.4,461.12 159.4,461.12" /></g><g
         transform="scale(1.17301)"
         id="g330"><path
           id="path332"
           style="fill:#c65447;fill-opacity:1;fill-rule:nonzero;stroke:none"
           d="m 16285.8,8587.06 14.2,-126.75 -153,34.36 138.8,92.39" /></g><g
         transform="scale(1.5985)"
         id="g334"><path
           id="path336"
           style="fill:#82b378;fill-opacity:1;fill-rule:nonzero;stroke:none"
           d="m 16216,1833.16 h -568 c -30.5,25.84 21,84.45 74.8,88.4 23.4,1.81 53,-3.13 86.7,-10.26 7.9,103.84 52.5,570.53 220.7,551.83 189.2,-21.02 0,-205.57 -53.4,-314.8 -39.6,-80.95 -81.4,-196.99 -100.6,-251.73 15.4,-3.38 31.3,-6.64 47.6,-9.58 25,76.95 118.3,335.88 236.9,320.81 139.3,-17.65 83.4,-121.5 -15.4,-183.12 -72.4,-45.29 -161.3,-109.72 -203.6,-140.81 35.8,-5.89 73.2,-9.83 111.1,-8.95 97.2,2.31 144.8,-26.34 163.2,-41.79" /></g><path
         id="path338"
         style="fill:#82b378;fill-opacity:1;fill-rule:nonzero;stroke:none"
         d="m 5194.2,2973.5 c -48.12,75.6 -192.93,271.8 -385.82,245.8 -210.15,-28.3 232.11,-166.9 367.51,-246.4 -30.07,-0.4 -55.92,2 -74.91,8.8 -90.52,32.2 -245.55,-29.7 -295.11,-51.4 h 861.76 c -5.96,20.6 -21.48,54.3 -61.61,78.8 -14.15,8.7 -42.6,9.9 -79.32,7.1 51.24,60.4 86.83,253.4 -55.82,203.7 -104.21,-36.3 -103.92,-154.2 -93.69,-223.9 -22.17,-3.5 -44.65,-7 -66.87,-10.2 -42.9,218.7 -194.66,859.5 -502.24,876.6 -311.82,17.3 264.42,-664.6 456.29,-882.7 -24.58,-3 -48.25,-5.2 -70.17,-6.2" /><g
         transform="scale(1.76748)"
         id="g340"><path
           id="path342"
           style="fill:#2e3552;fill-opacity:1;fill-rule:nonzero;stroke:none"
           d="M 16282.7,1622.47 H 1020.99 c -9.54,0 -17.33,7.81 -17.33,17.32 v 5.94 c 0,9.5 7.79,17.31 17.33,17.31 H 16282.7 c 9.5,0 17.3,-7.81 17.3,-17.31 v -5.94 c 0,-9.51 -7.8,-17.32 -17.3,-17.32" /></g></g></g></svg>